# xmcd
#
# Track frame offsets:
#	150
#	12902
#	22783
#	39107
#	60023
#	74156
#	91156
#	105282
#	123674
#	140453
#	155118
#	167602
#	180009
#	194848
#	212398
#	223780
#	236007
#	248541
#	261718
#	275395
#	287775
#	298991
#	313728
#	328039
#	340409
#
# Disc length: 4729 seconds
#
# Revision: 0
# Processed by: cddbd v1.5.2PL0 Copyright (c) Steve Scherf et al.
# Submitted via: audiograbber 1.83.01
#
DISCID=73127719
DTITLE=—борник - Los 100 Mayores Exitos De Los 60's CD1
DYEAR=1900
DGENRE=
TTITLE0=Los Brincos - UN SORBITO DE CHAMPAGNE
TTITLE1=Los Bravos - LOS CHICOS CON LAS CHICAS
TTITLE2=Pop Tops - MAMY BLUE
TTITLE3=Shirley Bassey - KILLING ME SOFTLY WITH HER SONG
TTITLE4=Petula Clark - DOWN TOWN
TTITLE5=Adamo - INCH'ALLA
TTITLE6=Nicola Di Bari - IL CUORE E'UNO ZINGARO
TTITLE7=Jose Feliciano - YOU SEND ME
TTITLE8=Iva Zanicchi - LA ORILLA BLANCA LA ORILLA NEGRA
TTITLE9=Jeanette -  SOY REBELDE
TTITLE10=The Archies - SUGAR SUGAR
TTITLE11=Jimmy Fontana - EL MUNDO
TTITLE12=Santabarbara - CHARLY
TTITLE13=Richard Antony - EN ARANJUEZ CON TU AMOR
TTITLE14=The Platters - SMOKE GETS IN YOUR EYES
TTITLE15=Mina - CIUDAD SOLITARIA
TTITLE16=Gloria Lasso - LUNA DE MIEL
TTITLE17=Fred Bongusto - GUARDA CHE LUNA
TTITLE18=Percy Sledge - WHEN A MAN LOVES A WOMAN
TTITLE19=Rita Pavone - COME TE NON CE NESSUNO
TTITLE20=Pat Boone - THREE COINS IN THE FOUNTAIN
TTITLE21=Los Mismos - PON UNA CINTA EN EL VIEJO ROBLE
TTITLE22=Los Gritos - LA VIDA SIGUE IGUAL
TTITLE23=Los Diablos - FIN DE SEMANA
TTITLE24=Frank Dube - MUSTAPHA
EXTD=
EXTT0=
EXTT1=
EXTT2=
EXTT3=
EXTT4=
EXTT5=
EXTT6=
EXTT7=
EXTT8=
EXTT9=
EXTT10=
EXTT11=
EXTT12=
EXTT13=
EXTT14=
EXTT15=
EXTT16=
EXTT17=
EXTT18=
EXTT19=
EXTT20=
EXTT21=
EXTT22=
EXTT23=
EXTT24=
PLAYORDER=
